<svg width="34" height="35" viewBox="0 0 34 35" fill="none" xmlns="http://www.w3.org/2000/svg">
<path d="M34 17.5C34 7.83398 26.3898 0 17 0C7.61016 0 0 7.83398 0 17.5C0 27.166 7.61016 35 17 35C17.0996 35 17.1992 35 17.2988 34.9932V21.376H13.6465V16.9941H17.2988V13.7676C17.2988 10.0283 19.5168 7.99121 22.7574 7.99121C24.3113 7.99121 25.6461 8.10742 26.0312 8.16211V12.0723H23.8C22.0402 12.0723 21.6949 12.9336 21.6949 14.1982V16.9873H25.9117L25.3605 21.3691H21.6949V34.3232C28.8004 32.2246 34 25.4912 34 17.5Z" fill="white"/>
</svg>
