<svg width="34" height="35" viewBox="0 0 34 35" fill="none" xmlns="http://www.w3.org/2000/svg">
<path d="M20.177 17.5C20.177 19.35 18.7258 20.8496 16.9355 20.8496C15.1452 20.8496 13.6939 19.35 13.6939 17.5C13.6939 15.65 15.1452 14.1504 16.9355 14.1504C18.7258 14.1504 20.177 15.65 20.177 17.5Z" fill="white"/>
<path d="M24.5162 11.5734C24.3604 11.1371 24.1118 10.7421 23.7887 10.418C23.475 10.0842 23.0931 9.82729 22.6706 9.66627C22.3279 9.52875 21.8132 9.36506 20.865 9.32047C19.8394 9.27213 19.5319 9.26172 16.9353 9.26172C14.3385 9.26172 14.031 9.27187 13.0056 9.3202C12.0575 9.36506 11.5425 9.52875 11.2001 9.66627C10.7776 9.82729 10.3954 10.0842 10.0819 10.418C9.75888 10.7421 9.51029 11.1368 9.35421 11.5734C9.22112 11.9275 9.06271 12.4597 9.01956 13.4394C8.97279 14.499 8.96271 14.8167 8.96271 17.5001C8.96271 20.1832 8.97279 20.501 9.01956 21.5608C9.06271 22.5405 9.22112 23.0724 9.35421 23.4265C9.51029 23.8631 9.75863 24.2578 10.0816 24.582C10.3954 24.9157 10.7773 25.1726 11.1998 25.3336C11.5425 25.4714 12.0575 25.6351 13.0056 25.6797C14.031 25.7281 14.3383 25.7382 16.9351 25.7382C19.5321 25.7382 19.8397 25.7281 20.8648 25.6797C21.8129 25.6351 22.3279 25.4714 22.6706 25.3336C23.5187 24.9956 24.189 24.3029 24.5162 23.4265C24.6493 23.0724 24.8077 22.5405 24.8511 21.5608C24.8979 20.501 24.9077 20.1832 24.9077 17.5001C24.9077 14.8167 24.8979 14.499 24.8511 13.4394C24.8079 12.4597 24.6495 11.9275 24.5162 11.5734ZM16.9353 22.6599C14.1773 22.6599 11.9415 20.3498 11.9415 17.4998C11.9415 14.6498 14.1773 12.3398 16.9353 12.3398C19.6931 12.3398 21.9289 14.6498 21.9289 17.4998C21.9289 20.3498 19.6931 22.6599 16.9353 22.6599ZM22.1264 13.3417C21.4819 13.3417 20.9594 12.8017 20.9594 12.1357C20.9594 11.4698 21.4819 10.9298 22.1264 10.9298C22.7709 10.9298 23.2934 11.4698 23.2934 12.1357C23.2931 12.8017 22.7709 13.3417 22.1264 13.3417Z" fill="white"/>
<path d="M16.9355 0C7.5837 0 0 7.83649 0 17.5C0 27.1635 7.5837 35 16.9355 35C26.2873 35 33.871 27.1635 33.871 17.5C33.871 7.83649 26.2873 0 16.9355 0ZM26.6015 21.643C26.5545 22.7127 26.3899 23.443 26.1495 24.0823C25.6443 25.4321 24.6117 26.4991 23.3054 27.0212C22.687 27.2695 21.98 27.4393 20.9451 27.4882C19.908 27.5371 19.5767 27.5488 16.9357 27.5488C14.2945 27.5488 13.9635 27.5371 12.9262 27.4882C11.8912 27.4393 11.1842 27.2695 10.5658 27.0212C9.91667 26.7688 9.32904 26.3734 8.84322 25.862C8.34861 25.3603 7.9659 24.7528 7.7217 24.0823C7.48137 23.4433 7.31676 22.7127 7.26973 21.6432C7.22192 20.5714 7.21081 20.229 7.21081 17.5C7.21081 14.771 7.22192 14.4286 7.26947 13.357C7.3165 12.2873 7.48085 11.557 7.72118 10.9177C7.96538 10.2472 8.34835 9.63974 8.84322 9.13799C9.32878 8.62663 9.91667 8.23116 10.5656 7.97882C11.1842 7.73048 11.891 7.56065 12.9262 7.51179C13.9632 7.46292 14.2945 7.45117 16.9355 7.45117C19.5765 7.45117 19.9078 7.46292 20.9448 7.51205C21.98 7.56065 22.6868 7.73048 23.3054 7.97855C23.9543 8.2309 24.5422 8.62663 25.028 9.13799C25.5226 9.64001 25.9056 10.2472 26.1495 10.9177C26.3901 11.557 26.5545 12.2873 26.6018 13.357C26.649 14.4286 26.6602 14.771 26.6602 17.5C26.6602 20.229 26.649 20.5714 26.6015 21.643Z" fill="white"/>
</svg>
