<svg width="51" height="50" viewBox="0 0 51 50" fill="none" xmlns="http://www.w3.org/2000/svg">
<path d="M29.9028 25C29.9028 27.6428 27.7605 29.7852 25.1177 29.7852C22.4749 29.7852 20.3325 27.6428 20.3325 25C20.3325 22.3572 22.4749 20.2148 25.1177 20.2148C27.7605 20.2148 29.9028 22.3572 29.9028 25Z" fill="black"/>
<path d="M36.3084 16.5348C36.0784 15.9115 35.7114 15.3473 35.2346 14.8842C34.7715 14.4073 34.2077 14.0404 33.584 13.8103C33.0781 13.6139 32.3182 13.3801 30.9186 13.3163C29.4046 13.2473 28.9506 13.2324 25.1176 13.2324C21.2842 13.2324 20.8303 13.2469 19.3166 13.316C17.917 13.3801 17.1567 13.6139 16.6513 13.8103C16.0276 14.0404 15.4634 14.4073 15.0007 14.8842C14.5238 15.3473 14.1568 15.9111 13.9264 16.5348C13.73 17.0406 13.4961 17.8009 13.4324 19.2005C13.3634 20.7142 13.3485 21.1681 13.3485 25.0015C13.3485 28.8345 13.3634 29.2885 13.4324 30.8025C13.4961 32.2021 13.73 32.962 13.9264 33.4679C14.1568 34.0916 14.5234 34.6554 15.0003 35.1185C15.4634 35.5953 16.0272 35.9623 16.6509 36.1923C17.1567 36.3892 17.917 36.623 19.3166 36.6867C20.8303 36.7558 21.2838 36.7702 25.1172 36.7702C28.951 36.7702 29.405 36.7558 30.9182 36.6867C32.3179 36.623 33.0781 36.3892 33.584 36.1923C34.8359 35.7094 35.8255 34.7198 36.3084 33.4679C36.5049 32.962 36.7387 32.2021 36.8028 30.8025C36.8718 29.2885 36.8863 28.8345 36.8863 25.0015C36.8863 21.1681 36.8718 20.7142 36.8028 19.2005C36.7391 17.8009 36.5053 17.0406 36.3084 16.5348ZM25.1176 32.3727C21.0462 32.3727 17.7457 29.0726 17.7457 25.0011C17.7457 20.9297 21.0462 17.6296 25.1176 17.6296C29.1887 17.6296 32.4891 20.9297 32.4891 25.0011C32.4891 29.0726 29.1887 32.3727 25.1176 32.3727ZM32.7806 19.0609C31.8292 19.0609 31.0579 18.2896 31.0579 17.3382C31.0579 16.3868 31.8292 15.6155 32.7806 15.6155C33.732 15.6155 34.5033 16.3868 34.5033 17.3382C34.5029 18.2896 33.732 19.0609 32.7806 19.0609Z" fill="black"/>
<path d="M25.1177 0C11.3127 0 0.117676 11.195 0.117676 25C0.117676 38.805 11.3127 50 25.1177 50C38.9227 50 50.1177 38.805 50.1177 25C50.1177 11.195 38.9227 0 25.1177 0ZM39.3866 30.9185C39.3171 32.4467 39.0741 33.49 38.7194 34.4032C37.9736 36.3316 36.4492 37.8559 34.5209 38.6017C33.608 38.9565 32.5643 39.1991 31.0366 39.2689C29.5057 39.3387 29.0167 39.3555 25.1181 39.3555C21.2191 39.3555 20.7304 39.3387 19.1992 39.2689C17.6714 39.1991 16.6277 38.9565 15.7148 38.6017C14.7566 38.2412 13.8891 37.6762 13.172 36.9457C12.4418 36.2289 11.8769 35.3611 11.5164 34.4032C11.1616 33.4904 10.9186 32.4467 10.8492 30.9189C10.7786 29.3877 10.7622 28.8986 10.7622 25C10.7622 21.1014 10.7786 20.6123 10.8488 19.0815C10.9182 17.5533 11.1608 16.51 11.5156 15.5968C11.8761 14.6389 12.4414 13.7711 13.172 13.0543C13.8887 12.3238 14.7566 11.7588 15.7144 11.3983C16.6277 11.0435 17.671 10.8009 19.1992 10.7311C20.73 10.6613 21.2191 10.6445 25.1177 10.6445C29.0163 10.6445 29.5053 10.6613 31.0362 10.7315C32.5643 10.8009 33.6077 11.0435 34.5209 11.3979C35.4788 11.7584 36.3466 12.3238 37.0638 13.0543C37.7939 13.7714 38.3593 14.6389 38.7194 15.5968C39.0745 16.51 39.3171 17.5533 39.3869 19.0815C39.4567 20.6123 39.4731 21.1014 39.4731 25C39.4731 28.8986 39.4567 29.3877 39.3866 30.9185Z" fill="black"/>
</svg>
