<svg width="51" height="50" viewBox="0 0 51 50" fill="none" xmlns="http://www.w3.org/2000/svg">
<path d="M25.4706 50C39.281 50 50.4706 38.8104 50.4706 25C50.4706 11.1896 39.281 0 25.4706 0C11.6602 0 0.470581 11.1896 0.470581 25C0.470581 38.8104 11.6602 50 25.4706 50ZM11.9102 24.4583L36.0143 15.1646C37.1331 14.7604 38.1102 15.4375 37.7477 17.1292L37.7497 17.1271L33.6456 36.4625C33.3414 37.8333 32.5268 38.1667 31.3872 37.5208L25.1372 32.9146L22.1227 35.8187C21.7893 36.1521 21.5081 36.4333 20.8622 36.4333L21.306 30.0729L32.8893 19.6083C33.3935 19.1646 32.7768 18.9146 32.1122 19.3563L17.7977 28.3687L11.6268 26.4437C10.2872 26.0187 10.2581 25.1042 11.9102 24.4583Z" fill="black"/>
</svg>
