<svg width="35" height="35" viewBox="0 0 35 35" fill="none" xmlns="http://www.w3.org/2000/svg">
<path d="M17.871 35C27.2621 35 34.871 27.1673 34.871 17.5C34.871 7.83271 27.2621 0 17.871 0C8.47989 0 0.870972 7.83271 0.870972 17.5C0.870972 27.1673 8.47989 35 17.871 35ZM8.64989 17.1208L25.0407 10.6152C25.8015 10.3323 26.4659 10.8063 26.2194 11.9904L26.2208 11.989L23.43 25.5238C23.2231 26.4833 22.6692 26.7167 21.8943 26.2646L17.6443 23.0402L15.5944 25.0731C15.3677 25.3065 15.1765 25.5033 14.7373 25.5033L15.0391 21.051L22.9157 13.7258C23.2586 13.4152 22.8392 13.2402 22.3873 13.5494L12.6534 19.8581L8.45722 18.5106C7.5463 18.2131 7.52647 17.5729 8.64989 17.1208Z" fill="white"/>
</svg>
