<svg width="51" height="50" viewBox="0 0 51 50" fill="none" xmlns="http://www.w3.org/2000/svg">
<path d="M25.3529 0C11.5479 0 0.352905 11.195 0.352905 25C0.352905 38.805 11.5479 50 25.3529 50C39.1579 50 50.3529 38.805 50.3529 25C50.3529 11.195 39.1579 0 25.3529 0ZM36.7676 19.4923C36.7787 19.7384 36.784 19.9856 36.784 20.2339C36.784 27.8164 31.0124 36.5601 20.4575 36.5604H20.4579H20.4575C17.2169 36.5604 14.2014 35.6106 11.662 33.9828C12.1109 34.0359 12.5679 34.0622 13.0307 34.0622C15.7193 34.0622 18.1935 33.1451 20.1577 31.6059C17.6457 31.5594 15.5278 29.9004 14.7969 27.6203C15.1467 27.6875 15.5064 27.7241 15.8753 27.7241C16.399 27.7241 16.9064 27.6535 17.3886 27.5219C14.7629 26.9962 12.785 24.6758 12.785 21.8971C12.785 21.8712 12.785 21.8479 12.7858 21.8239C13.559 22.2538 14.4433 22.5124 15.3847 22.5414C13.844 21.5134 12.8312 19.7559 12.8312 17.765C12.8312 16.7137 13.1154 15.7288 13.6082 14.8808C16.438 18.3529 20.6669 20.6364 25.4361 20.8763C25.3376 20.4559 25.2869 20.018 25.2869 19.5679C25.2869 16.4001 27.8569 13.8302 31.0257 13.8302C32.6764 13.8302 34.1671 14.5279 35.2143 15.6433C36.5216 15.3854 37.7491 14.9078 38.8581 14.2506C38.4289 15.5899 37.5195 16.7137 36.3347 17.4244C37.4955 17.2855 38.6017 16.9777 39.6298 16.5207C38.8619 17.6716 37.888 18.6825 36.7676 19.4923Z" fill="black"/>
</svg>
