<svg width="35" height="35" viewBox="0 0 35 35" fill="none" xmlns="http://www.w3.org/2000/svg">
<path d="M17.871 0C8.48357 0 0.870972 7.83649 0.870972 17.5C0.870972 27.1635 8.48357 35 17.871 35C27.2584 35 34.871 27.1635 34.871 17.5C34.871 7.83649 27.2584 0 17.871 0ZM25.633 13.6446C25.6405 13.8169 25.6441 13.9899 25.6441 14.1637C25.6441 19.4715 21.7194 25.592 14.5421 25.5923H14.5424H14.5421C12.3385 25.5923 10.2879 24.9274 8.56113 23.788C8.86644 23.8251 9.1772 23.8435 9.49185 23.8435C11.3201 23.8435 13.0026 23.2016 14.3382 22.1241C12.6301 22.0916 11.1899 20.9303 10.6929 19.3342C10.9307 19.3812 11.1754 19.4069 11.4262 19.4069C11.7823 19.4069 12.1273 19.3575 12.4552 19.2653C10.6698 18.8974 9.3248 17.273 9.3248 15.328C9.3248 15.3098 9.3248 15.2935 9.32532 15.2767C9.85112 15.5777 10.4524 15.7587 11.0926 15.779C10.0449 15.0594 9.35619 13.8292 9.35619 12.4355C9.35619 11.6996 9.54944 11.0101 9.88458 10.4165C11.8088 12.847 14.6845 14.4455 17.9275 14.6134C17.8606 14.3192 17.8261 14.0126 17.8261 13.6975C17.8261 11.4801 19.5737 9.68113 21.7285 9.68113C22.8509 9.68113 23.8647 10.1695 24.5767 10.9503C25.4657 10.7698 26.3004 10.4355 27.0545 9.9754C26.7627 10.9129 26.1443 11.6996 25.3386 12.1971C26.1279 12.0999 26.8802 11.8844 27.5793 11.5645C27.0571 12.3701 26.3948 13.0777 25.633 13.6446Z" fill="white"/>
</svg>
