<svg width="34" height="35" viewBox="0 0 34 35" fill="none" xmlns="http://www.w3.org/2000/svg">
<path d="M17 0C7.61148 0 0 7.83499 0 17.5C0 27.165 7.61148 35 17 35C26.3885 35 34 27.165 34 17.5C34 7.83499 26.3885 0 17 0ZM25.6233 19.3927C26.4157 20.1894 27.2539 20.9391 27.9652 21.8182C28.2803 22.207 28.5774 22.6091 28.8035 23.0613C29.1263 23.7062 28.8348 24.4134 28.2741 24.4517L24.7913 24.4509C23.8918 24.5276 23.176 24.1541 22.5725 23.5211C22.0908 23.0166 21.6438 22.4777 21.1798 21.956C20.9903 21.7419 20.7906 21.5403 20.5527 21.3817C20.0779 21.0637 19.6654 21.1611 19.3934 21.6717C19.1162 22.1913 19.0529 22.767 19.0264 23.3453C18.9885 24.1906 18.7409 24.4116 17.9169 24.4513C16.1562 24.5362 14.4856 24.2612 12.9329 23.3474C11.5631 22.5414 10.503 21.4039 9.57913 20.116C7.78017 17.6053 6.40243 14.8497 5.16452 12.0149C4.88591 11.3765 5.08974 11.0349 5.77391 11.0217C6.91061 10.9991 8.0473 11.002 9.184 11.0206C9.64661 11.0281 9.9527 11.3006 10.1304 11.75C10.7447 13.3057 11.4977 14.7859 12.4414 16.1587C12.6929 16.5243 12.9496 16.8888 13.3151 17.147C13.7186 17.432 14.0261 17.3378 14.2163 16.8741C14.3381 16.5794 14.3906 16.2643 14.417 15.9485C14.5075 14.8669 14.5183 13.7855 14.3617 12.7081C14.2643 12.0339 13.896 11.5985 13.2431 11.471C12.9106 11.4062 12.9593 11.2795 13.121 11.084C13.4017 10.746 13.6647 10.5369 14.1903 10.5369L18.1252 10.5362C18.7454 10.6615 18.8845 10.9479 18.9687 11.591L18.9722 16.0925C18.9649 16.3413 19.0936 17.0789 19.5277 17.2418C19.8755 17.36 20.105 17.0728 20.313 16.8462C21.2567 15.8153 21.929 14.5987 22.5311 13.3394C22.7969 12.784 23.0261 12.2094 23.2487 11.6336C23.4143 11.2079 23.6717 10.9984 24.1384 11.0056L27.9277 11.0102C28.0393 11.0102 28.1527 11.0113 28.2633 11.031C28.9019 11.1434 29.0769 11.4263 28.8793 12.0676C28.5683 13.0751 27.9642 13.9144 27.3736 14.7559C26.7405 15.6567 26.0654 16.5261 25.4386 17.4309C24.8626 18.258 24.9082 18.6744 25.6233 19.3927Z" fill="white"/>
</svg>
