<svg width="51" height="50" viewBox="0 0 51 50" fill="none" xmlns="http://www.w3.org/2000/svg">
<path d="M25.2354 0C11.4287 0 0.235352 11.1928 0.235352 25C0.235352 38.8072 11.4287 50 25.2354 50C39.042 50 50.2354 38.8072 50.2354 25C50.2354 11.1928 39.042 0 25.2354 0ZM37.9167 27.7038C39.0819 28.8419 40.3146 29.913 41.3607 31.1688C41.8241 31.7243 42.2609 32.2987 42.5934 32.9448C43.0681 33.866 42.6394 34.8762 41.8149 34.9309L36.6932 34.9299C35.3704 35.0394 34.3177 34.5059 33.4302 33.6015C32.7218 32.8808 32.0645 32.111 31.3822 31.3657C31.1034 31.0598 30.8098 30.7719 30.4599 30.5453C29.7617 30.091 29.155 30.2302 28.755 30.9596C28.3474 31.7018 28.2543 32.5243 28.2154 33.3504C28.1596 34.5581 27.7955 34.8737 26.5837 34.9304C23.9944 35.0517 21.5377 34.6588 19.2543 33.3535C17.24 32.202 15.6809 30.577 14.3223 28.7371C11.6768 25.1504 9.6507 21.2138 7.83024 17.1642C7.42052 16.2522 7.72026 15.7642 8.7264 15.7453C10.398 15.713 12.0696 15.7171 13.7412 15.7437C14.4215 15.7545 14.8717 16.1437 15.133 16.7857C16.0364 19.0082 17.1438 21.1228 18.5315 23.0839C18.9013 23.6061 19.2788 24.1269 19.8164 24.4957C20.4098 24.9028 20.8619 24.7683 21.1417 24.1059C21.3208 23.6849 21.398 23.2348 21.4369 22.7836C21.5699 21.2384 21.5857 19.6936 21.3556 18.1545C21.2123 17.1913 20.6706 16.5693 19.7105 16.3872C19.2215 16.2946 19.2932 16.1136 19.531 15.8343C19.9438 15.3514 20.3305 15.0527 21.1034 15.0527L26.8901 15.0517C27.8021 15.2307 28.0067 15.6399 28.1305 16.5586L28.1356 22.9893C28.1249 23.3448 28.3141 24.3985 28.9525 24.6312C29.464 24.8 29.8016 24.3898 30.1075 24.066C31.4952 22.5933 32.4839 20.8552 33.3694 19.0563C33.7602 18.2629 34.0972 17.4419 34.4246 16.6194C34.6681 16.0113 35.0466 15.712 35.7331 15.7222L41.3054 15.7289C41.4696 15.7289 41.6364 15.7304 41.799 15.7586C42.7382 15.9192 42.9955 16.3233 42.7049 17.2394C42.2476 18.6788 41.3591 19.8777 40.4906 21.0798C39.5596 22.3668 38.5668 23.6087 37.6451 24.9013C36.798 26.0829 36.865 26.6777 37.9167 27.7038Z" fill="black"/>
</svg>
